<svg width="20" height="20" viewBox="0 0 20 20" fill="none" xmlns="http://www.w3.org/2000/svg">
<path d="M20 20L17.5435 18.1053L16.1588 16.9789L14.6947 15.7895L15.2962 17.6411H2.34227C1.04497 17.637 -0.00331217 16.7141 7.86451e-06 15.5789V2.06C-0.00198288 0.925677 1.04591 0.00406225 2.34227 0H17.6577C18.9541 0.00406225 20.002 0.925677 20 2.06V20ZM14.5564 11.0611C14.0491 11.6563 13.3188 12.0766 12.4932 12.2484C12.8325 12.6274 13.2415 13.0558 13.2451 13.06C14.6251 13.0855 15.9317 12.5176 16.7423 11.54C16.7007 9.51338 16.1383 7.52095 15.0965 5.71053C14.1794 5.08081 13.063 4.7133 11.899 4.6579H11.8857L11.7257 4.81789C12.7655 5.06227 13.7351 5.49473 14.572 6.08737C13.5072 5.57516 12.3386 5.24911 11.1314 5.12737C10.3642 5.05281 9.58947 5.05952 8.82407 5.14737C8.76995 5.14831 8.71603 5.15324 8.66286 5.16211H8.62918C7.73215 5.25248 6.85692 5.4656 6.0355 5.79368C5.62407 5.95895 5.37144 6.07895 5.36061 6.08316C5.34978 6.08737 5.36061 6.08316 5.36061 6.07579C6.24829 5.46489 7.27239 5.02348 8.36692 4.78L8.24662 4.66H8.23941C7.07537 4.71554 5.95903 5.08303 5.04181 5.71263C3.99629 7.52183 3.43359 9.51503 3.3961 11.5421C4.1965 12.5262 5.50497 13.0963 6.88482 13.0621C6.88482 13.0621 7.3155 12.6032 7.65114 12.2316C6.84632 12.0546 6.13718 11.6377 5.64572 11.0526C5.65414 11.0579 5.77324 11.1284 5.96572 11.2211C5.97865 11.2343 5.99464 11.2451 6.01264 11.2526C6.02788 11.2619 6.04398 11.27 6.06076 11.2768C6.07978 11.2844 6.09792 11.2936 6.1149 11.3042C6.3833 11.4337 6.6619 11.5462 6.94858 11.6411C7.49363 11.8299 8.05742 11.9744 8.63279 12.0726C9.13654 12.1557 9.64798 12.198 10.1606 12.1989C10.6412 12.1989 11.1209 12.1601 11.5934 12.0832C12.1625 11.9957 12.7183 11.8516 13.2499 11.6537C13.7092 11.4991 14.1474 11.3004 14.5564 11.0611ZM12.1047 10.6116C11.5813 10.6515 11.0835 10.4062 10.8513 9.99388C10.619 9.58154 10.6998 9.08673 11.0548 8.74784C11.4098 8.40895 11.9662 8.2955 12.4558 8.46214C12.9455 8.62879 13.268 9.04135 13.268 9.50105C13.2945 10.0883 12.7744 10.5843 12.1035 10.6116H12.1047ZM7.93264 10.6116C7.27441 10.5614 6.76928 10.0792 6.76928 9.50105C6.76928 8.92292 7.27441 8.44073 7.93264 8.39053C8.23585 8.39133 8.52576 8.49956 8.73625 8.69053C8.97509 8.90745 9.10502 9.19886 9.09715 9.5C9.125 10.0883 8.60367 10.5854 7.93144 10.6116H7.93264Z" fill="#2259E7"/>
</svg>
