<svg width="133" height="162" viewBox="0 0 133 162" fill="none" xmlns="http://www.w3.org/2000/svg">
<rect width="133" height="162" fill="#F5F5F5"/>
<rect width="1440" height="3816" transform="translate(-729 -298)" fill="white"/>
<rect x="-729" y="-218" width="1440" height="580" fill="#121212"/>
<g opacity="0.4">
<rect y="0.417389" width="3.5946" height="4.39263" rx="1.34409" fill="white"/>
<rect x="14.3785" y="0.417389" width="3.5946" height="4.39263" rx="1.34409" fill="white"/>
<rect x="28.7569" y="0.417389" width="3.5946" height="4.39263" rx="1.34409" fill="white"/>
<rect x="43.1351" y="0.417389" width="3.5946" height="4.39263" rx="1.34409" fill="white"/>
<rect x="57.5136" y="0.417389" width="3.5946" height="4.39263" rx="1.34409" fill="white"/>
<rect x="71.8921" y="0.417389" width="3.5946" height="4.39263" rx="1.34409" fill="white"/>
<rect x="86.2705" y="0.417389" width="3.5946" height="4.39263" rx="1.34409" fill="white"/>
<rect x="100.649" y="0.417389" width="3.5946" height="4.39263" rx="1.34409" fill="white"/>
<rect x="115.027" y="0.417389" width="3.5946" height="4.39263" rx="1.34409" fill="white"/>
<rect x="129.405" y="0.417389" width="3.5946" height="4.39263" rx="1.34409" fill="white"/>
<rect y="17.9879" width="3.5946" height="4.39263" rx="1.34409" fill="white"/>
<rect x="14.3785" y="17.9879" width="3.5946" height="4.39263" rx="1.34409" fill="white"/>
<rect x="28.7569" y="17.9879" width="3.5946" height="4.39263" rx="1.34409" fill="white"/>
<rect x="43.1351" y="17.9879" width="3.5946" height="4.39263" rx="1.34409" fill="white"/>
<rect x="57.5136" y="17.9879" width="3.5946" height="4.39263" rx="1.34409" fill="white"/>
<rect x="71.8921" y="17.9879" width="3.5946" height="4.39263" rx="1.34409" fill="white"/>
<rect x="86.2705" y="17.9879" width="3.5946" height="4.39263" rx="1.34409" fill="white"/>
<rect x="100.649" y="17.9879" width="3.5946" height="4.39263" rx="1.34409" fill="white"/>
<rect x="115.027" y="17.9879" width="3.5946" height="4.39263" rx="1.34409" fill="white"/>
<rect x="129.405" y="17.9879" width="3.5946" height="4.39263" rx="1.34409" fill="white"/>
<rect y="35.5584" width="3.5946" height="4.39263" rx="1.34409" fill="white"/>
<rect x="14.3785" y="35.5584" width="3.5946" height="4.39263" rx="1.34409" fill="white"/>
<rect x="28.7569" y="35.5584" width="3.5946" height="4.39263" rx="1.34409" fill="white"/>
<rect x="43.1351" y="35.5584" width="3.5946" height="4.39263" rx="1.34409" fill="white"/>
<rect x="57.5136" y="35.5584" width="3.5946" height="4.39263" rx="1.34409" fill="white"/>
<rect x="71.8921" y="35.5584" width="3.5946" height="4.39263" rx="1.34409" fill="white"/>
<rect x="86.2705" y="35.5584" width="3.5946" height="4.39263" rx="1.34409" fill="white"/>
<rect x="100.649" y="35.5584" width="3.5946" height="4.39263" rx="1.34409" fill="white"/>
<rect x="115.027" y="35.5584" width="3.5946" height="4.39263" rx="1.34409" fill="white"/>
<rect x="129.405" y="35.5584" width="3.5946" height="4.39263" rx="1.34409" fill="white"/>
<rect y="53.129" width="3.5946" height="4.39263" rx="1.34409" fill="white"/>
<rect x="14.3785" y="53.129" width="3.5946" height="4.39263" rx="1.34409" fill="white"/>
<rect x="28.7569" y="53.129" width="3.5946" height="4.39263" rx="1.34409" fill="white"/>
<rect x="43.1351" y="53.129" width="3.5946" height="4.39263" rx="1.34409" fill="white"/>
<rect x="57.5136" y="53.129" width="3.5946" height="4.39263" rx="1.34409" fill="white"/>
<rect x="71.8921" y="53.129" width="3.5946" height="4.39263" rx="1.34409" fill="white"/>
<rect x="86.2705" y="53.129" width="3.5946" height="4.39263" rx="1.34409" fill="white"/>
<rect x="100.649" y="53.129" width="3.5946" height="4.39263" rx="1.34409" fill="white"/>
<rect x="115.027" y="53.129" width="3.5946" height="4.39263" rx="1.34409" fill="white"/>
<rect x="129.405" y="53.129" width="3.5946" height="4.39263" rx="1.34409" fill="white"/>
<rect y="70.6995" width="3.5946" height="4.39263" rx="1.34409" fill="white"/>
<rect x="14.3785" y="70.6995" width="3.5946" height="4.39263" rx="1.34409" fill="white"/>
<rect x="28.7569" y="70.6995" width="3.5946" height="4.39263" rx="1.34409" fill="white"/>
<rect x="43.1351" y="70.6995" width="3.5946" height="4.39263" rx="1.34409" fill="white"/>
<rect x="57.5136" y="70.6995" width="3.5946" height="4.39263" rx="1.34409" fill="white"/>
<rect x="71.8921" y="70.6995" width="3.5946" height="4.39263" rx="1.34409" fill="white"/>
<rect x="86.2705" y="70.6995" width="3.5946" height="4.39263" rx="1.34409" fill="white"/>
<rect x="100.649" y="70.6995" width="3.5946" height="4.39263" rx="1.34409" fill="white"/>
<rect x="115.027" y="70.6995" width="3.5946" height="4.39263" rx="1.34409" fill="white"/>
<rect x="129.405" y="70.6995" width="3.5946" height="4.39263" rx="1.34409" fill="white"/>
<rect y="88.27" width="3.5946" height="4.39263" rx="1.34409" fill="white"/>
<rect x="14.3785" y="88.27" width="3.5946" height="4.39263" rx="1.34409" fill="white"/>
<rect x="28.7569" y="88.27" width="3.5946" height="4.39263" rx="1.34409" fill="white"/>
<rect x="43.1351" y="88.27" width="3.5946" height="4.39263" rx="1.34409" fill="white"/>
<rect x="57.5136" y="88.27" width="3.5946" height="4.39263" rx="1.34409" fill="white"/>
<rect x="71.8921" y="88.27" width="3.5946" height="4.39263" rx="1.34409" fill="white"/>
<rect x="86.2705" y="88.27" width="3.5946" height="4.39263" rx="1.34409" fill="white"/>
<rect x="100.649" y="88.27" width="3.5946" height="4.39263" rx="1.34409" fill="white"/>
<rect x="115.027" y="88.27" width="3.5946" height="4.39263" rx="1.34409" fill="white"/>
<rect x="129.405" y="88.27" width="3.5946" height="4.39263" rx="1.34409" fill="white"/>
<rect y="105.841" width="3.5946" height="4.39263" rx="1.34409" fill="white"/>
<rect y="122.787" width="3.5946" height="4.39263" rx="1.34409" fill="white"/>
<rect y="139.733" width="3.5946" height="4.39263" rx="1.34409" fill="white"/>
<rect y="156.679" width="3.5946" height="4.39263" rx="1.34409" fill="white"/>
<rect x="14.3785" y="105.841" width="3.5946" height="4.39263" rx="1.34409" fill="white"/>
<rect x="14.3785" y="122.787" width="3.5946" height="4.39263" rx="1.34409" fill="white"/>
<rect x="14.3785" y="139.733" width="3.5946" height="4.39263" rx="1.34409" fill="white"/>
<rect x="14.3785" y="156.679" width="3.5946" height="4.39263" rx="1.34409" fill="white"/>
<rect x="28.7569" y="105.841" width="3.5946" height="4.39263" rx="1.34409" fill="white"/>
<rect x="28.7569" y="122.787" width="3.5946" height="4.39263" rx="1.34409" fill="white"/>
<rect x="28.7569" y="139.733" width="3.5946" height="4.39263" rx="1.34409" fill="white"/>
<rect x="28.7569" y="156.679" width="3.5946" height="4.39263" rx="1.34409" fill="white"/>
<rect x="43.1351" y="105.841" width="3.5946" height="4.39263" rx="1.34409" fill="white"/>
<rect x="43.1351" y="122.787" width="3.5946" height="4.39263" rx="1.34409" fill="white"/>
<rect x="43.1351" y="139.733" width="3.5946" height="4.39263" rx="1.34409" fill="white"/>
<rect x="43.1351" y="156.679" width="3.5946" height="4.39263" rx="1.34409" fill="white"/>
<rect x="57.5136" y="105.841" width="3.5946" height="4.39263" rx="1.34409" fill="white"/>
<rect x="57.5136" y="122.787" width="3.5946" height="4.39263" rx="1.34409" fill="white"/>
<rect x="57.5136" y="139.733" width="3.5946" height="4.39263" rx="1.34409" fill="white"/>
<rect x="57.5136" y="156.679" width="3.5946" height="4.39263" rx="1.34409" fill="white"/>
<rect x="71.8921" y="105.841" width="3.5946" height="4.39263" rx="1.34409" fill="white"/>
<rect x="71.8921" y="122.787" width="3.5946" height="4.39263" rx="1.34409" fill="white"/>
<rect x="71.8921" y="139.733" width="3.5946" height="4.39263" rx="1.34409" fill="white"/>
<rect x="71.8921" y="156.679" width="3.5946" height="4.39263" rx="1.34409" fill="white"/>
<rect x="86.2705" y="105.841" width="3.5946" height="4.39263" rx="1.34409" fill="white"/>
<rect x="86.2705" y="122.787" width="3.5946" height="4.39263" rx="1.34409" fill="white"/>
<rect x="86.2705" y="139.733" width="3.5946" height="4.39263" rx="1.34409" fill="white"/>
<rect x="86.2705" y="156.679" width="3.5946" height="4.39263" rx="1.34409" fill="white"/>
<rect x="100.649" y="105.841" width="3.5946" height="4.39263" rx="1.34409" fill="white"/>
<rect x="100.649" y="122.787" width="3.5946" height="4.39263" rx="1.34409" fill="white"/>
<rect x="100.649" y="139.733" width="3.5946" height="4.39263" rx="1.34409" fill="white"/>
<rect x="100.649" y="156.679" width="3.5946" height="4.39263" rx="1.34409" fill="white"/>
<rect x="115.027" y="105.841" width="3.5946" height="4.39263" rx="1.34409" fill="white"/>
<rect x="115.027" y="122.787" width="3.5946" height="4.39263" rx="1.34409" fill="white"/>
<rect x="115.027" y="139.733" width="3.5946" height="4.39263" rx="1.34409" fill="white"/>
<rect x="115.027" y="156.679" width="3.5946" height="4.39263" rx="1.34409" fill="white"/>
<rect x="129.405" y="105.841" width="3.5946" height="4.39263" rx="1.34409" fill="white"/>
<rect x="129.405" y="122.787" width="3.5946" height="4.39263" rx="1.34409" fill="white"/>
<rect x="129.405" y="139.733" width="3.5946" height="4.39263" rx="1.34409" fill="white"/>
<rect x="129.405" y="156.679" width="3.5946" height="4.39263" rx="1.34409" fill="white"/>
</g>
</svg>
