<svg width="149" height="149" viewBox="0 0 149 149" fill="none" xmlns="http://www.w3.org/2000/svg">
<g opacity="0.4">
<rect y="0.597046" width="4.02703" height="4.03586" rx="1.34409" fill="black"/>
<rect x="16.1082" y="0.597046" width="4.02703" height="4.03586" rx="1.34409" fill="black"/>
<rect x="32.2164" y="0.597046" width="4.02703" height="4.03586" rx="1.34409" fill="black"/>
<rect x="48.3243" y="0.597046" width="4.02703" height="4.03586" rx="1.34409" fill="black"/>
<rect x="64.4325" y="0.597046" width="4.02703" height="4.03586" rx="1.34409" fill="black"/>
<rect x="80.5407" y="0.597046" width="4.02703" height="4.03586" rx="1.34409" fill="black"/>
<rect x="96.6489" y="0.597046" width="4.02703" height="4.03586" rx="1.34409" fill="black"/>
<rect x="112.757" y="0.597046" width="4.02703" height="4.03586" rx="1.34409" fill="black"/>
<rect x="128.865" y="0.597046" width="4.02703" height="4.03586" rx="1.34409" fill="black"/>
<rect x="144.973" y="0.597046" width="4.02703" height="4.03586" rx="1.34409" fill="black"/>
<rect y="16.7404" width="4.02703" height="4.03586" rx="1.34409" fill="black"/>
<rect x="16.1082" y="16.7404" width="4.02703" height="4.03586" rx="1.34409" fill="black"/>
<rect x="32.2164" y="16.7404" width="4.02703" height="4.03586" rx="1.34409" fill="black"/>
<rect x="48.3243" y="16.7404" width="4.02703" height="4.03586" rx="1.34409" fill="black"/>
<rect x="64.4325" y="16.7404" width="4.02703" height="4.03586" rx="1.34409" fill="black"/>
<rect x="80.5407" y="16.7404" width="4.02703" height="4.03586" rx="1.34409" fill="black"/>
<rect x="96.6489" y="16.7404" width="4.02703" height="4.03586" rx="1.34409" fill="black"/>
<rect x="112.757" y="16.7404" width="4.02703" height="4.03586" rx="1.34409" fill="black"/>
<rect x="128.865" y="16.7404" width="4.02703" height="4.03586" rx="1.34409" fill="black"/>
<rect x="144.973" y="16.7404" width="4.02703" height="4.03586" rx="1.34409" fill="black"/>
<rect y="32.884" width="4.02703" height="4.03586" rx="1.34409" fill="black"/>
<rect x="16.1082" y="32.8839" width="4.02703" height="4.03586" rx="1.34409" fill="black"/>
<rect x="32.2164" y="32.8839" width="4.02703" height="4.03586" rx="1.34409" fill="black"/>
<rect x="48.3243" y="32.8839" width="4.02703" height="4.03586" rx="1.34409" fill="black"/>
<rect x="64.4325" y="32.8839" width="4.02703" height="4.03586" rx="1.34409" fill="black"/>
<rect x="80.5407" y="32.8839" width="4.02703" height="4.03586" rx="1.34409" fill="black"/>
<rect x="96.6489" y="32.8839" width="4.02703" height="4.03586" rx="1.34409" fill="black"/>
<rect x="112.757" y="32.8839" width="4.02703" height="4.03586" rx="1.34409" fill="black"/>
<rect x="128.865" y="32.8839" width="4.02703" height="4.03586" rx="1.34409" fill="black"/>
<rect x="144.973" y="32.8839" width="4.02703" height="4.03586" rx="1.34409" fill="black"/>
<rect y="49.0273" width="4.02703" height="4.03586" rx="1.34409" fill="black"/>
<rect x="16.1082" y="49.0273" width="4.02703" height="4.03586" rx="1.34409" fill="black"/>
<rect x="32.2164" y="49.0273" width="4.02703" height="4.03586" rx="1.34409" fill="black"/>
<rect x="48.3243" y="49.0273" width="4.02703" height="4.03586" rx="1.34409" fill="black"/>
<rect x="64.4325" y="49.0273" width="4.02703" height="4.03586" rx="1.34409" fill="black"/>
<rect x="80.5407" y="49.0273" width="4.02703" height="4.03586" rx="1.34409" fill="black"/>
<rect x="96.6489" y="49.0273" width="4.02703" height="4.03586" rx="1.34409" fill="black"/>
<rect x="112.757" y="49.0273" width="4.02703" height="4.03586" rx="1.34409" fill="black"/>
<rect x="128.865" y="49.0273" width="4.02703" height="4.03586" rx="1.34409" fill="black"/>
<rect x="144.973" y="49.0273" width="4.02703" height="4.03586" rx="1.34409" fill="black"/>
<rect y="65.1709" width="4.02703" height="4.03586" rx="1.34409" fill="black"/>
<rect x="16.1082" y="65.1709" width="4.02703" height="4.03586" rx="1.34409" fill="black"/>
<rect x="32.2164" y="65.1709" width="4.02703" height="4.03586" rx="1.34409" fill="black"/>
<rect x="48.3243" y="65.1709" width="4.02703" height="4.03586" rx="1.34409" fill="black"/>
<rect x="64.4325" y="65.1709" width="4.02703" height="4.03586" rx="1.34409" fill="black"/>
<rect x="80.5407" y="65.1709" width="4.02703" height="4.03586" rx="1.34409" fill="black"/>
<rect x="96.6489" y="65.1709" width="4.02703" height="4.03586" rx="1.34409" fill="black"/>
<rect x="112.757" y="65.1709" width="4.02703" height="4.03586" rx="1.34409" fill="black"/>
<rect x="128.865" y="65.1709" width="4.02703" height="4.03586" rx="1.34409" fill="black"/>
<rect x="144.973" y="65.1709" width="4.02703" height="4.03586" rx="1.34409" fill="black"/>
<rect y="81.3143" width="4.02703" height="4.03586" rx="1.34409" fill="black"/>
<rect x="16.1082" y="81.3143" width="4.02703" height="4.03586" rx="1.34409" fill="black"/>
<rect x="32.2164" y="81.3143" width="4.02703" height="4.03586" rx="1.34409" fill="black"/>
<rect x="48.3243" y="81.3143" width="4.02703" height="4.03586" rx="1.34409" fill="black"/>
<rect x="64.4325" y="81.3143" width="4.02703" height="4.03586" rx="1.34409" fill="black"/>
<rect x="80.5407" y="81.3143" width="4.02703" height="4.03586" rx="1.34409" fill="black"/>
<rect x="96.6489" y="81.3143" width="4.02703" height="4.03586" rx="1.34409" fill="black"/>
<rect x="112.757" y="81.3143" width="4.02703" height="4.03586" rx="1.34409" fill="black"/>
<rect x="128.865" y="81.3143" width="4.02703" height="4.03586" rx="1.34409" fill="black"/>
<rect x="144.973" y="81.3143" width="4.02703" height="4.03586" rx="1.34409" fill="black"/>
<rect y="97.4578" width="4.02703" height="4.03586" rx="1.34409" fill="black"/>
<rect y="113.028" width="4.02703" height="4.03586" rx="1.34409" fill="black"/>
<rect y="128.597" width="4.02703" height="4.03586" rx="1.34409" fill="black"/>
<rect y="144.167" width="4.02703" height="4.03586" rx="1.34409" fill="black"/>
<rect x="16.1082" y="97.4578" width="4.02703" height="4.03586" rx="1.34409" fill="black"/>
<rect x="16.1082" y="113.028" width="4.02703" height="4.03586" rx="1.34409" fill="black"/>
<rect x="16.1082" y="128.597" width="4.02703" height="4.03586" rx="1.34409" fill="black"/>
<rect x="16.1082" y="144.167" width="4.02703" height="4.03586" rx="1.34409" fill="black"/>
<rect x="32.2164" y="97.4578" width="4.02703" height="4.03586" rx="1.34409" fill="black"/>
<rect x="32.2164" y="113.028" width="4.02703" height="4.03586" rx="1.34409" fill="black"/>
<rect x="32.2164" y="128.597" width="4.02703" height="4.03586" rx="1.34409" fill="black"/>
<rect x="32.2164" y="144.167" width="4.02703" height="4.03586" rx="1.34409" fill="black"/>
<rect x="48.3243" y="97.4578" width="4.02703" height="4.03586" rx="1.34409" fill="black"/>
<rect x="48.3243" y="113.028" width="4.02703" height="4.03586" rx="1.34409" fill="black"/>
<rect x="48.3243" y="128.597" width="4.02703" height="4.03586" rx="1.34409" fill="black"/>
<rect x="48.3243" y="144.167" width="4.02703" height="4.03586" rx="1.34409" fill="black"/>
<rect x="64.4325" y="97.4578" width="4.02703" height="4.03586" rx="1.34409" fill="black"/>
<rect x="64.4325" y="113.028" width="4.02703" height="4.03586" rx="1.34409" fill="black"/>
<rect x="64.4325" y="128.597" width="4.02703" height="4.03586" rx="1.34409" fill="black"/>
<rect x="64.4325" y="144.167" width="4.02703" height="4.03586" rx="1.34409" fill="black"/>
<rect x="80.5407" y="97.4578" width="4.02703" height="4.03586" rx="1.34409" fill="black"/>
<rect x="80.5407" y="113.028" width="4.02703" height="4.03586" rx="1.34409" fill="black"/>
<rect x="80.5407" y="128.597" width="4.02703" height="4.03586" rx="1.34409" fill="black"/>
<rect x="80.5407" y="144.167" width="4.02703" height="4.03586" rx="1.34409" fill="black"/>
<rect x="96.6489" y="97.4578" width="4.02703" height="4.03586" rx="1.34409" fill="black"/>
<rect x="96.6489" y="113.028" width="4.02703" height="4.03586" rx="1.34409" fill="black"/>
<rect x="96.6489" y="128.597" width="4.02703" height="4.03586" rx="1.34409" fill="black"/>
<rect x="96.6489" y="144.167" width="4.02703" height="4.03586" rx="1.34409" fill="black"/>
<rect x="112.757" y="97.4578" width="4.02703" height="4.03586" rx="1.34409" fill="black"/>
<rect x="112.757" y="113.028" width="4.02703" height="4.03586" rx="1.34409" fill="black"/>
<rect x="112.757" y="128.597" width="4.02703" height="4.03586" rx="1.34409" fill="black"/>
<rect x="112.757" y="144.167" width="4.02703" height="4.03586" rx="1.34409" fill="black"/>
<rect x="128.865" y="97.4578" width="4.02703" height="4.03586" rx="1.34409" fill="black"/>
<rect x="128.865" y="113.028" width="4.02703" height="4.03586" rx="1.34409" fill="black"/>
<rect x="128.865" y="128.597" width="4.02703" height="4.03586" rx="1.34409" fill="black"/>
<rect x="128.865" y="144.167" width="4.02703" height="4.03586" rx="1.34409" fill="black"/>
<rect x="144.973" y="97.4578" width="4.02703" height="4.03586" rx="1.34409" fill="black"/>
<rect x="144.973" y="113.028" width="4.02703" height="4.03586" rx="1.34409" fill="black"/>
<rect x="144.973" y="128.597" width="4.02703" height="4.03586" rx="1.34409" fill="black"/>
<rect x="144.973" y="144.167" width="4.02703" height="4.03586" rx="1.34409" fill="black"/>
</g>
</svg>
