<svg width="105" height="103" viewBox="0 0 105 103" fill="none" xmlns="http://www.w3.org/2000/svg">
<rect y="0.939209" width="2.83784" height="2.78671" rx="1.34409" fill="#121212"/>
<rect x="11.3514" y="0.939209" width="2.83784" height="2.78671" rx="1.34409" fill="#121212"/>
<rect x="22.7028" y="0.939209" width="2.83784" height="2.78671" rx="1.34409" fill="#121212"/>
<rect x="34.054" y="0.939209" width="2.83784" height="2.78671" rx="1.34409" fill="#121212"/>
<rect x="45.4054" y="0.939209" width="2.83784" height="2.78671" rx="1.34409" fill="#121212"/>
<rect x="56.7568" y="0.939209" width="2.83784" height="2.78671" rx="1.34409" fill="#121212"/>
<rect x="68.1082" y="0.939209" width="2.83784" height="2.78671" rx="1.34409" fill="#121212"/>
<rect x="79.4597" y="0.939209" width="2.83784" height="2.78671" rx="1.34409" fill="#121212"/>
<rect x="90.8109" y="0.939209" width="2.83784" height="2.78671" rx="1.34409" fill="#121212"/>
<rect x="102.162" y="0.939209" width="2.83784" height="2.78671" rx="1.34409" fill="#121212"/>
<rect y="12.0861" width="2.83784" height="2.78671" rx="1.34409" fill="#121212"/>
<rect x="11.3514" y="12.0861" width="2.83784" height="2.78671" rx="1.34409" fill="#121212"/>
<rect x="22.7028" y="12.0861" width="2.83784" height="2.78671" rx="1.34409" fill="#121212"/>
<rect x="34.054" y="12.0861" width="2.83784" height="2.78671" rx="1.34409" fill="#121212"/>
<rect x="45.4054" y="12.0861" width="2.83784" height="2.78671" rx="1.34409" fill="#121212"/>
<rect x="56.7568" y="12.0861" width="2.83784" height="2.78671" rx="1.34409" fill="#121212"/>
<rect x="68.1082" y="12.0861" width="2.83784" height="2.78671" rx="1.34409" fill="#121212"/>
<rect x="79.4597" y="12.0861" width="2.83784" height="2.78671" rx="1.34409" fill="#121212"/>
<rect x="90.8109" y="12.0861" width="2.83784" height="2.78671" rx="1.34409" fill="#121212"/>
<rect x="102.162" y="12.0861" width="2.83784" height="2.78671" rx="1.34409" fill="#121212"/>
<rect y="23.2329" width="2.83784" height="2.78671" rx="1.34409" fill="#121212"/>
<rect x="11.3514" y="23.2329" width="2.83784" height="2.78671" rx="1.34409" fill="#121212"/>
<rect x="22.7028" y="23.2329" width="2.83784" height="2.78671" rx="1.34409" fill="#121212"/>
<rect x="34.054" y="23.2329" width="2.83784" height="2.78671" rx="1.34409" fill="#121212"/>
<rect x="45.4054" y="23.2329" width="2.83784" height="2.78671" rx="1.34409" fill="#121212"/>
<rect x="56.7568" y="23.2329" width="2.83784" height="2.78671" rx="1.34409" fill="#121212"/>
<rect x="68.1082" y="23.2329" width="2.83784" height="2.78671" rx="1.34409" fill="#121212"/>
<rect x="79.4597" y="23.2329" width="2.83784" height="2.78671" rx="1.34409" fill="#121212"/>
<rect x="90.8109" y="23.2329" width="2.83784" height="2.78671" rx="1.34409" fill="#121212"/>
<rect x="102.162" y="23.2329" width="2.83784" height="2.78671" rx="1.34409" fill="#121212"/>
<rect y="34.3798" width="2.83784" height="2.78671" rx="1.34409" fill="#121212"/>
<rect x="11.3514" y="34.3798" width="2.83784" height="2.78671" rx="1.34409" fill="#121212"/>
<rect x="22.7028" y="34.3798" width="2.83784" height="2.78671" rx="1.34409" fill="#121212"/>
<rect x="34.054" y="34.3798" width="2.83784" height="2.78671" rx="1.34409" fill="#121212"/>
<rect x="45.4054" y="34.3798" width="2.83784" height="2.78671" rx="1.34409" fill="#121212"/>
<rect x="56.7568" y="34.3798" width="2.83784" height="2.78671" rx="1.34409" fill="#121212"/>
<rect x="68.1082" y="34.3798" width="2.83784" height="2.78671" rx="1.34409" fill="#121212"/>
<rect x="79.4597" y="34.3798" width="2.83784" height="2.78671" rx="1.34409" fill="#121212"/>
<rect x="90.8109" y="34.3798" width="2.83784" height="2.78671" rx="1.34409" fill="#121212"/>
<rect x="102.162" y="34.3798" width="2.83784" height="2.78671" rx="1.34409" fill="#121212"/>
<rect y="45.5265" width="2.83784" height="2.78671" rx="1.34409" fill="#121212"/>
<rect x="11.3514" y="45.5265" width="2.83784" height="2.78671" rx="1.34409" fill="#121212"/>
<rect x="22.7028" y="45.5265" width="2.83784" height="2.78671" rx="1.34409" fill="#121212"/>
<rect x="34.054" y="45.5265" width="2.83784" height="2.78671" rx="1.34409" fill="#121212"/>
<rect x="45.4054" y="45.5265" width="2.83784" height="2.78671" rx="1.34409" fill="#121212"/>
<rect x="56.7568" y="45.5265" width="2.83784" height="2.78671" rx="1.34409" fill="#121212"/>
<rect x="68.1082" y="45.5265" width="2.83784" height="2.78671" rx="1.34409" fill="#121212"/>
<rect x="79.4597" y="45.5265" width="2.83784" height="2.78671" rx="1.34409" fill="#121212"/>
<rect x="90.8109" y="45.5265" width="2.83784" height="2.78671" rx="1.34409" fill="#121212"/>
<rect x="102.162" y="45.5265" width="2.83784" height="2.78671" rx="1.34409" fill="#121212"/>
<rect y="56.6733" width="2.83784" height="2.78671" rx="1.34409" fill="#121212"/>
<rect x="11.3514" y="56.6733" width="2.83784" height="2.78671" rx="1.34409" fill="#121212"/>
<rect x="22.7028" y="56.6733" width="2.83784" height="2.78671" rx="1.34409" fill="#121212"/>
<rect x="34.054" y="56.6733" width="2.83784" height="2.78671" rx="1.34409" fill="#121212"/>
<rect x="45.4054" y="56.6733" width="2.83784" height="2.78671" rx="1.34409" fill="#121212"/>
<rect x="56.7568" y="56.6733" width="2.83784" height="2.78671" rx="1.34409" fill="#121212"/>
<rect x="68.1082" y="56.6733" width="2.83784" height="2.78671" rx="1.34409" fill="#121212"/>
<rect x="79.4597" y="56.6733" width="2.83784" height="2.78671" rx="1.34409" fill="#121212"/>
<rect x="90.8109" y="56.6733" width="2.83784" height="2.78671" rx="1.34409" fill="#121212"/>
<rect x="102.162" y="56.6733" width="2.83784" height="2.78671" rx="1.34409" fill="#121212"/>
<rect y="67.8203" width="2.83784" height="2.78671" rx="1.34409" fill="#121212"/>
<rect y="78.5709" width="2.83784" height="2.78671" rx="1.34409" fill="#121212"/>
<rect y="89.3217" width="2.83784" height="2.78671" rx="1.34409" fill="#121212"/>
<rect y="100.072" width="2.83784" height="2.78671" rx="1.34409" fill="#121212"/>
<rect x="11.3514" y="67.8203" width="2.83784" height="2.78671" rx="1.34409" fill="#121212"/>
<rect x="11.3514" y="78.5709" width="2.83784" height="2.78671" rx="1.34409" fill="#121212"/>
<rect x="11.3514" y="89.3217" width="2.83784" height="2.78671" rx="1.34409" fill="#121212"/>
<rect x="11.3514" y="100.072" width="2.83784" height="2.78671" rx="1.34409" fill="#121212"/>
<rect x="22.7028" y="67.8203" width="2.83784" height="2.78671" rx="1.34409" fill="#121212"/>
<rect x="22.7028" y="78.5709" width="2.83784" height="2.78671" rx="1.34409" fill="#121212"/>
<rect x="22.7028" y="89.3217" width="2.83784" height="2.78671" rx="1.34409" fill="#121212"/>
<rect x="22.7028" y="100.072" width="2.83784" height="2.78671" rx="1.34409" fill="#121212"/>
<rect x="34.054" y="67.8203" width="2.83784" height="2.78671" rx="1.34409" fill="#121212"/>
<rect x="34.054" y="78.5709" width="2.83784" height="2.78671" rx="1.34409" fill="#121212"/>
<rect x="34.054" y="89.3217" width="2.83784" height="2.78671" rx="1.34409" fill="#121212"/>
<rect x="34.054" y="100.072" width="2.83784" height="2.78671" rx="1.34409" fill="#121212"/>
<rect x="45.4054" y="67.8203" width="2.83784" height="2.78671" rx="1.34409" fill="#121212"/>
<rect x="45.4054" y="78.5709" width="2.83784" height="2.78671" rx="1.34409" fill="#121212"/>
<rect x="45.4054" y="89.3217" width="2.83784" height="2.78671" rx="1.34409" fill="#121212"/>
<rect x="45.4054" y="100.072" width="2.83784" height="2.78671" rx="1.34409" fill="#121212"/>
<rect x="56.7568" y="67.8203" width="2.83784" height="2.78671" rx="1.34409" fill="#121212"/>
<rect x="56.7568" y="78.5709" width="2.83784" height="2.78671" rx="1.34409" fill="#121212"/>
<rect x="56.7568" y="89.3217" width="2.83784" height="2.78671" rx="1.34409" fill="#121212"/>
<rect x="56.7568" y="100.072" width="2.83784" height="2.78671" rx="1.34409" fill="#121212"/>
<rect x="68.1082" y="67.8203" width="2.83784" height="2.78671" rx="1.34409" fill="#121212"/>
<rect x="68.1082" y="78.5709" width="2.83784" height="2.78671" rx="1.34409" fill="#121212"/>
<rect x="68.1082" y="89.3217" width="2.83784" height="2.78671" rx="1.34409" fill="#121212"/>
<rect x="68.1082" y="100.072" width="2.83784" height="2.78671" rx="1.34409" fill="#121212"/>
<rect x="79.4597" y="67.8203" width="2.83784" height="2.78671" rx="1.34409" fill="#121212"/>
<rect x="79.4597" y="78.5709" width="2.83784" height="2.78671" rx="1.34409" fill="#121212"/>
<rect x="79.4597" y="89.3217" width="2.83784" height="2.78671" rx="1.34409" fill="#121212"/>
<rect x="79.4597" y="100.072" width="2.83784" height="2.78671" rx="1.34409" fill="#121212"/>
<rect x="90.8109" y="67.8203" width="2.83784" height="2.78671" rx="1.34409" fill="#121212"/>
<rect x="90.8109" y="78.5709" width="2.83784" height="2.78671" rx="1.34409" fill="#121212"/>
<rect x="90.8109" y="89.3217" width="2.83784" height="2.78671" rx="1.34409" fill="#121212"/>
<rect x="90.8109" y="100.072" width="2.83784" height="2.78671" rx="1.34409" fill="#121212"/>
<rect x="102.162" y="67.8203" width="2.83784" height="2.78671" rx="1.34409" fill="#121212"/>
<rect x="102.162" y="78.5709" width="2.83784" height="2.78671" rx="1.34409" fill="#121212"/>
<rect x="102.162" y="89.3217" width="2.83784" height="2.78671" rx="1.34409" fill="#121212"/>
<rect x="102.162" y="100.072" width="2.83784" height="2.78671" rx="1.34409" fill="#121212"/>
</svg>
