<svg width="20" height="20" viewBox="0 0 20 20" fill="none" xmlns="http://www.w3.org/2000/svg">
<path d="M17.6441 3.15358C18.5012 2.52278 19.1425 1.52951 19.4483 0.359238C18.6429 0.947536 17.7618 1.36195 16.8429 1.58456C15.569 -0.0744761 13.5505 -0.478209 11.9155 0.598954C10.2804 1.67612 9.4335 3.9675 9.84798 6.19275C6.54901 5.98885 3.47544 4.07041 1.3921 0.914811C0.304847 3.22352 0.860458 6.17484 2.66182 7.65936C2.01043 7.63358 1.37348 7.41646 0.804092 7.02611C0.804092 7.04729 0.804092 7.06848 0.804092 7.08967C0.804469 9.49458 2.18125 11.5661 4.09599 12.0427C3.49179 12.2451 2.85802 12.2749 2.24304 12.1298C2.78153 14.1865 4.32121 15.5954 6.07611 15.6375C4.62265 17.0419 2.82769 17.8035 0.980017 17.7997C0.65252 17.8003 0.32528 17.7771 0 17.7303C1.87627 19.2146 4.06002 20.0024 6.29028 19.9997C9.39311 20.0259 12.375 18.52 14.569 15.8188C16.763 13.1175 17.986 9.44643 17.9644 5.62658C17.9644 5.40765 17.9603 5.18989 17.952 4.97331C18.7556 4.25837 19.4491 3.37269 20 2.35789C19.2514 2.7664 18.4573 3.03461 17.6441 3.15358Z" fill="#7199FC"/>
</svg>
