<svg width="24" height="25" viewBox="0 0 24 25" fill="none" xmlns="http://www.w3.org/2000/svg">
<path d="M12 24.1745C5.37258 24.1745 0 18.8522 0 12.2868C0 5.72136 5.37258 0.399048 12 0.399048C18.6274 0.399048 24 5.72136 24 12.2868C23.9927 18.8492 18.6244 24.1673 12 24.1745ZM12 2.77659C6.69807 2.77659 2.4 7.03444 2.4 12.2868C2.4 17.5391 6.69807 21.7969 12 21.7969C17.3019 21.7969 21.6 17.5391 21.6 12.2868C21.594 7.03688 17.2995 2.78249 12 2.77659ZM11.94 16.4475L6 10.563L7.6968 8.88212L11.94 13.0844L16.1832 8.88212L17.88 10.563L11.94 16.4475Z" fill="#2E3A59"/>
</svg>
