<svg width="20" height="20" viewBox="0 0 20 20" fill="none" xmlns="http://www.w3.org/2000/svg">
<path d="M9.99445 20C7.26263 20 6.94059 19.9856 5.87451 19.939C5.04317 19.9117 4.22258 19.743 3.44808 19.44C2.10806 18.9193 1.04846 17.8608 0.527485 16.5225C0.235765 15.7463 0.0784207 14.9262 0.0621877 14.0974C0 13.035 0 12.6868 0 9.98004C0 7.2444 0.0144364 6.92504 0.0621877 5.86605C0.0787758 5.03828 0.236115 4.21935 0.527485 3.44422C1.0479 2.10416 2.10922 1.04477 3.45142 0.525615C4.22726 0.233092 5.04758 0.0755648 5.87674 0.0598802C6.93726 0 7.28595 0 9.99445 0C12.7485 0 13.065 0.0144156 14.1144 0.0598802C14.9457 0.0757004 15.7682 0.233211 16.5464 0.525615C17.8882 1.04536 18.9493 2.10454 19.4703 3.44422C19.7669 4.23064 19.9251 5.06238 19.9378 5.90264C20 6.96496 20 7.31204 20 10.0177C20 12.7234 19.9845 13.0783 19.9378 14.1284C19.9213 14.9581 19.7636 15.7789 19.4714 16.5558C18.9491 17.895 17.8879 18.9538 16.5464 19.4744C15.7693 19.7651 14.9485 19.9222 14.1188 19.939C13.0583 20 12.7107 20 9.99445 20ZM9.95669 1.75538C7.24042 1.75538 6.95836 1.76868 5.89783 1.81637C5.26484 1.82474 4.63796 1.94138 4.04442 2.16123C3.16797 2.49613 2.47443 3.18584 2.13548 4.05966C1.91362 4.65879 1.79679 5.29162 1.79012 5.93036C1.73126 7.00488 1.73126 7.28654 1.73126 9.98004C1.73126 12.6414 1.74125 12.9641 1.79012 14.0319C1.80006 14.6642 1.91682 15.2903 2.13548 15.8838C2.47493 16.757 3.16834 17.4462 4.04442 17.7811C4.63755 18.0024 5.26469 18.1191 5.89783 18.126C6.97279 18.1881 7.25597 18.1881 9.95669 18.1881C12.6807 18.1881 12.9628 18.1748 14.0144 18.126C14.6479 18.1183 15.2752 18.0016 15.869 17.7811C16.7401 17.4433 17.4291 16.7557 17.7679 15.886C17.9893 15.2864 18.1062 14.6533 18.1133 14.0142H18.1255C18.1732 12.9541 18.1732 12.6713 18.1732 9.9623C18.1732 7.25327 18.161 6.96829 18.1133 5.90929C18.1033 5.27772 17.9865 4.65237 17.7679 4.05966C17.4299 3.1887 16.7408 2.49977 15.869 2.16123C15.2753 1.94028 14.6479 1.8236 14.0144 1.81637C12.9406 1.75538 12.6596 1.75538 9.95669 1.75538ZM9.99445 15.102C7.91781 15.1034 6.04488 13.8553 5.24915 11.94C4.45342 10.0246 4.89162 7.81917 6.35939 6.35225C7.82716 4.88533 10.0354 4.44585 11.9542 5.23878C13.873 6.03171 15.1245 7.90085 15.1249 9.97449C15.1219 12.8034 12.8274 15.0965 9.99445 15.102ZM9.99445 6.6456C8.15452 6.6456 6.66296 8.135 6.66296 9.97228C6.66296 11.8096 8.15452 13.299 9.99445 13.299C11.8344 13.299 13.3259 11.8096 13.3259 9.97228C13.3217 8.13677 11.8326 6.64987 9.99445 6.6456ZM15.3248 5.85496C14.6645 5.85251 14.1309 5.31669 14.1322 4.65736C14.1334 3.99804 14.669 3.46419 15.3293 3.46419C15.9895 3.46419 16.5251 3.99803 16.5264 4.65735C16.5267 4.97545 16.4001 5.28058 16.1746 5.5053C15.9492 5.73002 15.6434 5.85584 15.3248 5.85496Z" fill="#F11A81"/>
</svg>
