<svg width="40" height="41" viewBox="0 0 40 41" fill="none" xmlns="http://www.w3.org/2000/svg">
<path d="M29.878 0.617126C32.56 0.617126 35.14 1.78388 37.038 3.87744C38.938 5.9666 40 8.78443 40 11.7343V29.1256C40 35.2676 35.46 40.2428 29.878 40.2428H10.12C4.538 40.2428 0 35.2676 0 29.1256V11.7343C0 5.59236 4.518 0.617126 10.12 0.617126H29.878ZM32.14 12.0646C31.72 12.0403 31.32 12.1966 31.018 12.5048L22 20.43C20.84 21.4889 19.178 21.4889 18 20.43L9 12.5048C8.378 11.9985 7.518 12.0646 7 12.6589C6.46 13.2533 6.4 14.1999 6.858 14.8604L7.12 15.1466L16.22 22.9616C17.34 23.9303 18.698 24.4586 20.12 24.4586C21.538 24.4586 22.92 23.9303 24.038 22.9616L33.06 15.0145L33.22 14.8384C33.698 14.1999 33.698 13.2753 33.198 12.6369C32.92 12.3089 32.538 12.1086 32.14 12.0646Z" fill="#5F34BB"/>
</svg>
