<svg width="40" height="41" viewBox="0 0 40 41" fill="none" xmlns="http://www.w3.org/2000/svg">
<path d="M38.8708 1.7705C37.8703 0.751348 36.3897 0.374403 35.0092 0.773287L2.81599 10.0453C1.3594 10.4482 0.326974 11.599 0.0488603 13.0589C-0.235256 14.5467 0.75715 16.4375 2.05368 17.2272L12.1198 23.3541C13.1522 23.9843 14.4848 23.8268 15.3391 22.9732L26.8658 11.4833C27.4461 10.883 28.4065 10.883 28.9867 11.4833C29.5669 12.0597 29.5669 12.9991 28.9867 13.5974L17.44 25.0872C16.5836 25.9409 16.4236 27.2652 17.0538 28.2963L23.2043 38.3681C23.9246 39.5627 25.1651 40.2428 26.5257 40.2428C26.6858 40.2428 26.8658 40.2428 27.0259 40.2209C28.5865 40.0234 29.827 38.9644 30.2872 37.4686L39.8311 5.61972C40.2513 4.26352 39.8712 2.78765 38.8708 1.7705Z" fill="#45CC52"/>
<path opacity="0.4" d="M14.9087 34.8058C15.493 35.3902 15.493 36.3376 14.9087 36.9219L12.1756 39.6443C11.8835 39.9375 11.4993 40.0831 11.1152 40.0831C10.731 40.0831 10.3469 39.9375 10.0547 39.6443C9.46851 39.0599 9.46851 38.1146 10.0547 37.5302L12.7859 34.8058C13.3721 34.2235 14.3225 34.2235 14.9087 34.8058ZM13.3407 27.251C13.9249 27.8354 13.9249 28.7827 13.3407 29.3671L10.6076 32.0894C10.3155 32.3826 9.9313 32.5282 9.54714 32.5282C9.16298 32.5282 8.77883 32.3826 8.48671 32.0894C7.90047 31.5051 7.90047 30.5597 8.48671 29.9754L11.2178 27.251C11.8041 26.6686 12.7545 26.6686 13.3407 27.251ZM5.81521 24.8728C6.39945 25.4572 6.39945 26.4046 5.81521 26.9889L3.08209 29.7113C2.78997 30.0045 2.40582 30.1501 2.02166 30.1501C1.6375 30.1501 1.25334 30.0045 0.961225 29.7113C0.374985 29.1269 0.374985 28.1816 0.961225 27.5972L3.69234 24.8728C4.27858 24.2905 5.22897 24.2905 5.81521 24.8728Z" fill="#45CC52"/>
</svg>
