<svg width="40" height="40" viewBox="0 0 40 40" fill="none" xmlns="http://www.w3.org/2000/svg">
<path d="M31.8336 24.8825C31.3157 25.4109 31.0777 26.1751 31.1957 26.9245L32.9734 37.2817C33.1234 38.1595 32.7715 39.0479 32.0736 39.5553C31.3897 40.0815 30.4798 40.1447 29.7339 39.7237L20.877 34.8608C20.5691 34.6882 20.2271 34.5956 19.8772 34.5851H19.3352C19.1472 34.6145 18.9633 34.6777 18.7953 34.7745L9.93645 39.6605C9.49851 39.8921 9.00257 39.9742 8.51664 39.8921C7.33279 39.6563 6.5429 38.469 6.73687 37.2165L8.51664 26.8593C8.63462 26.1035 8.39665 25.3351 7.87872 24.7983L0.657666 17.4304C0.0537446 16.8136 -0.156228 15.8874 0.119736 15.0516C0.387701 14.218 1.07161 13.6096 1.8975 13.4728L11.8362 11.955C12.5921 11.8729 13.256 11.3887 13.596 10.673L17.9754 1.22097C18.0794 1.01046 18.2134 0.816787 18.3754 0.652588L18.5553 0.505229C18.6493 0.395763 18.7573 0.305243 18.8773 0.231563L19.0953 0.147359L19.4352 0H20.2771C21.029 0.0820998 21.6909 0.555752 22.0369 1.26307L26.4743 10.673C26.7943 11.3613 27.4162 11.8392 28.1341 11.955L38.0728 13.4728C38.9127 13.5991 39.6146 14.2096 39.8925 15.0516C40.1545 15.8958 39.9285 16.822 39.3126 17.4304L31.8336 24.8825Z" fill="#1FF2FF"/>
</svg>
