<svg width="40" height="41" viewBox="0 0 40 41" fill="none" xmlns="http://www.w3.org/2000/svg">
<path d="M19.9073 26.4828C13.6346 26.4828 8.34198 27.879 8.34198 33.2674C8.34198 38.6581 13.6688 40.0052 19.9073 40.0052C26.18 40.0052 31.4727 38.6091 31.4727 33.2206C31.4727 27.8299 26.1458 26.4828 19.9073 26.4828Z" fill="#514949"/>
<path opacity="0.4" d="M19.9073 21.349C24.1548 21.349 27.5606 16.6832 27.5606 10.8643C27.5606 5.04312 24.1548 0.379517 19.9073 0.379517C15.6599 0.379517 12.2541 5.04312 12.2541 10.8643C12.2541 16.6832 15.6599 21.349 19.9073 21.349Z" fill="#514949"/>
<path opacity="0.4" d="M36.5236 13.3055C37.6225 7.41749 34.4006 2.12939 30.2981 2.12939C29.852 2.12939 29.4255 2.1963 29.0087 2.31005C28.9533 2.32789 28.8915 2.36581 28.8589 2.43272C28.8215 2.51747 28.8491 2.63122 28.8898 2.70482C30.1222 5.07342 30.8304 7.95723 30.8304 11.0529C30.8304 14.0192 30.1809 16.7848 29.0412 19.0799C28.924 19.3163 29.0282 19.6352 29.235 19.6843C29.5215 19.7534 29.8145 19.7891 30.1141 19.8002C33.1015 19.9073 35.7828 17.2733 36.5236 13.3055Z" fill="#514949"/>
<path d="M39.6532 27.1688C39.1062 25.5719 37.7859 24.4768 35.7786 23.9393C34.8311 23.6226 32.267 23.1766 29.882 23.2368C29.8461 23.2435 29.8266 23.2769 29.8233 23.2992C29.8185 23.3304 29.8282 23.384 29.8754 23.4174C30.9776 24.1646 35.2381 27.4142 34.7025 34.268C34.6797 34.5646 34.8539 34.8211 35.0704 34.7765C36.1188 34.5713 38.8164 33.7773 39.6532 31.3039C40.1156 29.9969 40.1156 28.478 39.6532 27.1688Z" fill="#514949"/>
<path opacity="0.4" d="M10.9906 2.31072C10.5754 2.19475 10.1473 2.13007 9.7012 2.13007C5.59863 2.13007 2.37681 7.41816 3.47734 13.3062C4.21645 17.274 6.89778 19.908 9.88516 19.8009C10.1847 19.7898 10.4794 19.7519 10.7643 19.6849C10.971 19.6359 11.0752 19.3169 10.958 19.0805C9.81842 16.7833 9.16884 14.0199 9.16884 11.0536C9.16884 7.95567 9.87865 5.07186 11.1111 2.70549C11.1501 2.63189 11.1794 2.51814 11.1404 2.43339C11.1078 2.36425 11.0476 2.32856 10.9906 2.31072Z" fill="#514949"/>
<path d="M4.22101 23.9387C2.21368 24.4762 0.894996 25.5712 0.347986 27.1682C-0.115995 28.4774 -0.115995 29.9962 0.347986 31.3054C1.18478 33.7766 3.88238 34.5728 4.93082 34.7758C5.14734 34.8204 5.31991 34.5661 5.29712 34.2673C4.76151 27.4157 9.022 24.1661 10.1258 23.419C10.1714 23.3833 10.1811 23.332 10.1763 23.2985C10.173 23.2762 10.1551 23.2428 10.1193 23.2383C7.73262 23.1759 5.17014 23.6219 4.22101 23.9387Z" fill="#514949"/>
</svg>
